<?xml version="1.0" encoding="UTF-8" standalone="no"?>
<!-- Created with Inkscape (http://www.inkscape.org/) -->

<svg
   width="50mm"
   height="50mm"
   viewBox="0 0 50 50"
   version="1.1"
   id="svg1"
   inkscape:version="1.4.4 (dcaf3e7, 2026-05-05)"
   sodipodi:docname="drawing.svg"
   inkscape:export-filename="loggerhead.png"
   inkscape:export-xdpi="512"
   inkscape:export-ydpi="512"
   xmlns:inkscape="http://www.inkscape.org/namespaces/inkscape"
   xmlns:sodipodi="http://sodipodi.sourceforge.net/DTD/sodipodi-0.dtd"
   xmlns="http://www.w3.org/2000/svg"
   xmlns:svg="http://www.w3.org/2000/svg">
  <sodipodi:namedview
     id="namedview1"
     pagecolor="#ffffff"
     bordercolor="#000000"
     borderopacity="0.25"
     inkscape:showpageshadow="2"
     inkscape:pageopacity="0.0"
     inkscape:pagecheckerboard="0"
     inkscape:deskcolor="#d1d1d1"
     inkscape:document-units="mm"
     inkscape:export-bgcolor="#00000000"
     inkscape:zoom="2"
     inkscape:cx="25.75"
     inkscape:cy="66.25"
     inkscape:window-width="1920"
     inkscape:window-height="1009"
     inkscape:window-x="-8"
     inkscape:window-y="-8"
     inkscape:window-maximized="1"
     inkscape:current-layer="g4-8-9-1" />
  <defs
     id="defs1" />
  <g
     inkscape:label="Layer 1"
     inkscape:groupmode="layer"
     id="layer1">
    <rect
       style="display:none;fill:#000000;stroke-width:0.0490624"
       id="rect1"
       width="50"
       height="50"
       x="-57.008072"
       y="-0.92604166"
       ry="0"
       rx="0" />
    <g
       id="g4-8"
       transform="matrix(-1.1676175,-0.61726842,-0.61726842,1.1676175,143.83583,-6.8665282)"
       style="display:none">
      <path
         style="opacity:1;fill:#ce1919;fill-opacity:1;stroke-width:0.261336"
         d="m 111.3084,93.300135 3.34984,-6.482683 5.52568,-4.223246 23.37734,-2.644837 -5.9884,18.884225 -4.24532,1.247076 -16.91003,1.21441 -3.07714,-0.80981 z"
         id="path1-8-5"
         sodipodi:nodetypes="ccccccccc" />
      <path
         style="fill:#ce1919;fill-opacity:1;stroke-width:0.261336"
         d="m 118.40104,105.6242 -2.02451,-3.73764 17.17621,-1.22999 4.14025,-1.248099 -0.56811,3.216379 -1.86407,1.44552 -3.1517,1.14826 -4.06932,0.31467 z"
         id="path1-8-3-7"
         sodipodi:nodetypes="ccccccccc" />
      <path
         id="rect3-6"
         style="opacity:1;fill:#cbcbcb;fill-opacity:1;stroke-width:0.264583"
         d="m 115.20659,92.161019 5.10272,-3.763856 1.17055,5.728142 -5.64586,1.105999 z"
         sodipodi:nodetypes="ccccc" />
      <rect
         style="opacity:1;fill:#cbcbcb;fill-opacity:1;stroke-width:0.264583"
         id="rect4-1"
         width="11.459181"
         height="0.56126595"
         x="35.509663"
         y="141.87375"
         transform="rotate(-37.037653)" />
    </g>
    <g
       id="g4-8-9"
       transform="matrix(-1.1676175,-0.61726843,-0.61726843,1.1676175,155.45857,-6.5207062)"
       style="display:none">
      <path
         style="opacity:1;fill:#1922ce;fill-opacity:1;stroke-width:0.261336"
         d="m 111.3084,93.300135 3.34984,-6.482683 5.52568,-4.223246 23.37734,-2.644837 -5.9884,18.884225 -4.24532,1.247076 -16.91003,1.21441 -3.07714,-0.80981 z"
         id="path1-8-5-5"
         sodipodi:nodetypes="ccccccccc" />
      <path
         style="fill:#1922ce;fill-opacity:1;stroke-width:0.261336"
         d="m 118.40104,105.6242 -2.02451,-3.73764 17.17621,-1.22999 4.14025,-1.248099 -0.56811,3.216379 -1.86407,1.44552 -3.1517,1.14826 -4.06932,0.31467 z"
         id="path1-8-3-7-4"
         sodipodi:nodetypes="ccccccccc" />
      <path
         id="rect3-6-3"
         style="opacity:1;stroke-width:0.264583"
         d="m 115.20659,92.161019 5.10272,-3.763856 1.17055,5.728142 -5.64586,1.105999 z"
         sodipodi:nodetypes="ccccc" />
      <rect
         style="opacity:1;fill:#000000;fill-opacity:1;stroke-width:0.264583"
         id="rect4-1-1"
         width="11.459181"
         height="0.56126595"
         x="35.509663"
         y="141.87375"
         transform="rotate(-37.037653)" />
    </g>
    <g
       id="g4-8-9-1"
       transform="matrix(1.865369,0.1411349,-0.1411349,1.865369,-177.63269,-168.98974)"
       style="display:inline">
      <path
         style="opacity:1;fill:#1922ce;fill-opacity:1;stroke-width:0.303209"
         d="m 109.54472,87.959664 8.21036,-2.065602 7.03298,1.132289 9.21791,9.785545 2.84877,4.743804 -3.77548,6.90479 -5.90097,4.82933 -5.36184,-2.38335 -13.84116,-13.590811 -3.97274,0.231079 z"
         id="path1-8-5-5-1"
         sodipodi:nodetypes="ccccccccccc" />
      <path
         style="fill:#1922ce;fill-opacity:1;stroke-width:0.303209"
         d="m 105.90806,101.12471 1.94981,-4.083031 8.63687,7.465991 5.58452,6.09843 1.85338,0.65574 4.82911,0.69332 -2.14213,1.7923 -6.41171,0.8455 -3.41913,-1.85899 -1.16492,-2.82795 -6.36608,-4.32704 z"
         id="path1-8-3-7-4-3"
         sodipodi:nodetypes="cccccccccccc" />
      <path
         id="rect3-6-3-8"
         style="opacity:1;stroke-width:0.306976"
         d="m 113.5292,90.474854 7.19218,1.546871 -4.76095,5.823184 -4.35869,-4.769812 z"
         sodipodi:nodetypes="ccccc" />
      <rect
         style="opacity:1;fill:#000000;fill-opacity:1;stroke-width:0.306976"
         id="rect4-1-1-7"
         width="13.29525"
         height="0.65119582"
         x="128.2122"
         y="64.733383"
         transform="rotate(11.513582)" />
    </g>
  </g>
</svg>
